<?xml version="1.0" standalone="no"?>
<!DOCTYPE svg PUBLIC "-//W3C//DTD SVG 20010904//EN"
 "http://www.w3.org/TR/2001/REC-SVG-20010904/DTD/svg10.dtd">
<svg version="1.0" xmlns="http://www.w3.org/2000/svg"
 width="64.000000pt" height="64.000000pt" viewBox="0 0 64.000000 64.000000"
 preserveAspectRatio="xMidYMid meet">

<g transform="translate(0.000000,64.000000) scale(0.100000,-0.100000)"
fill="#000000" stroke="none">
<path d="M10 625 c-18 -21 -3 -55 25 -55 13 0 27 5 30 10 3 6 36 10 73 10 l67
0 -32 -20 c-57 -34 -36 -40 28 -7 50 26 63 29 80 19 24 -15 62 -15 77 0 16 16
96 -16 145 -61 117 -105 117 -297 0 -402 -49 -45 -129 -77 -145 -61 -15 15
-61 15 -76 0 -16 -16 -96 16 -145 61 -57 51 -87 120 -87 201 0 66 23 135 57
172 9 10 13 21 9 26 -20 20 -78 -99 -83 -173 -9 -109 39 -211 124 -265 l47
-30 -66 0 c-37 0 -70 5 -73 10 -11 18 -53 11 -60 -10 -13 -40 29 -64 59 -35
21 22 211 22 220 0 7 -19 62 -20 73 -1 5 10 29 16 68 19 45 2 54 5 37 11 -21
8 -20 10 23 37 48 31 99 101 115 159 33 119 -17 257 -117 320 l-47 30 66 0
c37 0 70 -4 73 -10 11 -18 53 -11 60 10 13 40 -29 64 -59 35 -11 -11 -39 -15
-114 -15 -80 0 -101 3 -106 15 -7 20 -65 20 -72 0 -5 -12 -26 -15 -106 -15
-75 0 -103 4 -114 15 -19 19 -38 19 -54 0z m40 -20 c0 -8 -7 -15 -15 -15 -8 0
-15 7 -15 15 0 8 7 15 15 15 8 0 15 -7 15 -15z m288 -2 c-2 -10 -10 -18 -18
-18 -8 0 -16 8 -18 18 -2 12 3 17 18 17 15 0 20 -5 18 -17z m282 2 c0 -8 -7
-15 -15 -15 -8 0 -15 7 -15 15 0 8 7 15 15 15 8 0 15 -7 15 -15z m-570 -570
c0 -8 -7 -15 -15 -15 -8 0 -15 7 -15 15 0 8 7 15 15 15 8 0 15 -7 15 -15z
m290 0 c0 -8 -9 -15 -20 -15 -11 0 -20 7 -20 15 0 8 9 15 20 15 11 0 20 -7 20
-15z"/>
<path d="M249 537 c-57 -21 -97 -54 -126 -105 -23 -38 -28 -59 -28 -113 0 -56
5 -73 30 -115 19 -30 49 -60 79 -79 42 -25 59 -30 116 -30 57 0 74 5 116 30
30 19 60 49 79 79 25 42 30 59 30 116 0 57 -5 74 -30 116 -56 90 -175 135
-266 101z m136 -18 c23 -7 57 -28 81 -53 85 -84 85 -208 0 -292 -84 -85 -208
-85 -292 0 -82 82 -85 203 -6 288 57 60 132 80 217 57z"/>
<path d="M140 320 c0 -48 1 -50 28 -50 24 1 25 2 10 14 -12 8 -18 27 -18 50 0
20 -4 36 -10 36 -5 0 -10 -22 -10 -50z"/>
<path d="M202 358 c-15 -15 -15 -61 0 -76 15 -15 51 -15 66 0 15 15 15 61 0
76 -7 7 -21 12 -33 12 -12 0 -26 -5 -33 -12z m56 -36 c4 -28 -24 -40 -45 -19
-14 13 -14 19 -3 32 18 22 44 15 48 -13z"/>
<path d="M312 358 c-7 -7 -12 -24 -12 -38 0 -47 42 -66 74 -34 22 22 20 44 -4
44 -22 0 -27 -16 -7 -23 8 -3 6 -7 -6 -12 -27 -11 -55 18 -37 39 7 9 23 16 37
16 14 0 21 4 18 10 -9 14 -48 13 -63 -2z"/>
<path d="M416 354 c-30 -30 -9 -84 33 -84 21 0 51 30 51 52 0 19 -32 48 -53
48 -8 0 -23 -7 -31 -16z m59 -34 c0 -18 -6 -26 -23 -28 -13 -2 -25 3 -28 12
-10 26 4 48 28 44 17 -2 23 -10 23 -28z"/>
<path d="M575 60 c-3 -5 -19 -10 -35 -10 -16 0 -32 -4 -35 -10 -4 -6 7 -10 25
-10 17 0 38 -7 46 -15 30 -29 72 -5 59 35 -7 21 -49 28 -60 10z m45 -25 c0 -8
-7 -15 -15 -15 -8 0 -15 7 -15 15 0 8 7 15 15 15 8 0 15 -7 15 -15z"/>
</g>
</svg>
